HIERARCHY
ROOT Hips
{
	OFFSET 0.000000 0.000000 0.000000
	CHANNELS 6 Xposition Yposition Zposition Zrotation Yrotation Xrotation 
	JOINT LHipJoint
	{
		OFFSET 0.000000 0.000000 0.000000
		CHANNELS 3 Zrotation Yrotation Xrotation
		JOINT LeftUpLeg
		{
			OFFSET 1.363060 -1.794630 0.839290
			CHANNELS 3 Zrotation Yrotation Xrotation
			JOINT LeftLeg
			{
				OFFSET 2.448110 -6.726130 0.000000
				CHANNELS 3 Zrotation Yrotation Xrotation
				JOINT LeftFoot
				{
					OFFSET 2.562200 -7.039590 0.000000
					CHANNELS 3 Zrotation Yrotation Xrotation
					JOINT LeftToeBase
					{
						OFFSET 0.157640 -0.433110 2.322550
						CHANNELS 3 Zrotation Yrotation Xrotation
						End Site
						{
							OFFSET 0.000000 0.000000 0.000000
						}
					}
				}
			}
		}
	}
	JOINT RHipJoint
	{
		OFFSET 0.000000 0.000000 0.000000
		CHANNELS 3 Zrotation Yrotation Xrotation
		JOINT RightUpLeg
		{
			OFFSET -1.305520 -1.794630 0.839290
			CHANNELS 3 Zrotation Yrotation Xrotation
			JOINT RightLeg
			{
				OFFSET -2.542530 -6.985550 0.000000
				CHANNELS 3 Zrotation Yrotation Xrotation
				JOINT RightFoot
				{
					OFFSET -2.568260 -7.056230 0.000000
					CHANNELS 3 Zrotation Yrotation Xrotation
					JOINT RightToeBase
					{
						OFFSET -0.164730 -0.452590 2.363150
						CHANNELS 3 Zrotation Yrotation Xrotation
						End Site
						{
							OFFSET 0.000000 0.000000 0.000000
						}
					}
				}
			}
		}
	}
	JOINT LowerBack
	{
		OFFSET 0.000000 0.000000 0.000000
		CHANNELS 3 Zrotation Yrotation Xrotation
		JOINT Spine
		{
			OFFSET 0.028270 2.035590 -0.193380
			CHANNELS 3 Zrotation Yrotation Xrotation
			JOINT Spine1
			{
				OFFSET 0.056720 2.048850 -0.042750
				CHANNELS 3 Zrotation Yrotation Xrotation
				JOINT Neck
				{
					OFFSET 0.000000 0.000000 0.000000
					CHANNELS 3 Zrotation Yrotation Xrotation
					JOINT Neck1
					{
						OFFSET -0.054170 1.746240 0.172020
						CHANNELS 3 Zrotation Yrotation Xrotation
						JOINT Head
						{
							OFFSET 0.104070 1.761360 -0.123970
							CHANNELS 3 Zrotation Yrotation Xrotation
							End Site
							{
								OFFSET 0.000000 0.000000 0.000000
							}
						}
					}
				}
				JOINT LeftShoulder
				{
					OFFSET 0.000000 0.000000 0.000000
					CHANNELS 3 Zrotation Yrotation Xrotation
					JOINT LeftArm
					{
						OFFSET 3.362410 1.200890 -0.311210
						CHANNELS 3 Zrotation Yrotation Xrotation
						JOINT LeftForeArm
						{
							OFFSET 4.983000 -0.000000 -0.000000
							CHANNELS 3 Zrotation Yrotation Xrotation
							JOINT LeftHand
							{
								OFFSET 3.483560 -0.000000 -0.000000
								CHANNELS 3 Zrotation Yrotation Xrotation
								JOINT LeftFingerBase
								{
									OFFSET 0.000000 0.000000 0.000000
									CHANNELS 3 Zrotation Yrotation Xrotation
									JOINT LeftHandIndex1
									{
										OFFSET 0.715260 -0.000000 -0.000000
										CHANNELS 3 Zrotation Yrotation Xrotation
										End Site
										{
											OFFSET 0.000000 0.000000 0.000000
										}
									}
								}
								JOINT LThumb
								{
									OFFSET 0.000000 0.000000 0.000000
									CHANNELS 3 Zrotation Yrotation Xrotation
									End Site
									{
										OFFSET 0.000000 0.000000 0.000000
									}
								}
							}
						}
					}
				}
				JOINT RightShoulder
				{
					OFFSET 0.000000 0.000000 0.000000
					CHANNELS 3 Zrotation Yrotation Xrotation
					JOINT RightArm
					{
						OFFSET -3.136600 1.374050 -0.404650
						CHANNELS 3 Zrotation Yrotation Xrotation
						JOINT RightForeArm
						{
							OFFSET -5.241900 -0.000000 -0.000000
							CHANNELS 3 Zrotation Yrotation Xrotation
							JOINT RightHand
							{
								OFFSET -3.444170 -0.000000 -0.000000
								CHANNELS 3 Zrotation Yrotation Xrotation
								JOINT RightFingerBase
								{
									OFFSET 0.000000 0.000000 0.000000
									CHANNELS 3 Zrotation Yrotation Xrotation
									JOINT RightHandIndex1
									{
										OFFSET -0.622530 -0.000000 -0.000000
										CHANNELS 3 Zrotation Yrotation Xrotation
										End Site
										{
											OFFSET 0.000000 0.000000 0.000000
										}
									}
								}
								JOINT RThumb
								{
									OFFSET 0.000000 0.000000 0.000000
									CHANNELS 3 Zrotation Yrotation Xrotation
									End Site
									{
										OFFSET 0.000000 0.000000 0.000000
									}
								}
							}
						}
					}
				}
			}
		}
	}
}
MOTION
Frames: 6
Frame Time: 0.008333
0.796162 18.160743 -0.171825 1.687610 5.182712 2.184048 -2.604148 5.598116 6.065651 -21.304375 -3.996326 -6.077282 -0.745500 4.685504 20.440438 1.160267 -2.961073 1.619297 0.027053 1.062041 2.919468 1.519213 -3.277349 2.204744 14.862257 7.391004 -35.722768 -4.815134 -13.385803 41.558909 2.972211 -11.688540 7.527939 -0.060228 1.581748 -4.350997 -2.924301 -2.349152 6.372862 2.789588 -3.071910 2.222223 3.821410 -1.729120 -7.977901 -5.215267 -3.795328 -15.876334 2.628345 -3.991929 18.477247 -0.346183 -1.680872 9.558788 -7.316751 2.203345 -1.047863 -77.307186 -7.257985 30.726799 13.384453 -22.631412 -2.919807 -0.664126 -1.190569 -7.800418 27.693594 23.329274 12.635131 -7.125000 0.000000 0.000000 -0.993558 57.246175 -0.298139 11.546593 -1.871681 -2.643534 75.075531 -3.830023 4.889631 -8.864008 19.926372 -1.995320 1.043421 -0.732923 5.579333 -14.162449 23.211176 -6.270890 7.125000 0.000000 0.000000 8.621798 -5.707132 7.812612
0.792314 18.150939 -0.073239 1.755526 5.331303 2.283937 -2.642852 5.622499 6.121669 -21.287691 -3.973699 -5.724606 -0.811074 4.535842 20.039814 1.085920 -2.718686 1.656323 0.020045 0.887359 2.439070 1.615413 -3.246460 2.146910 14.628224 7.447503 -35.636294 -4.361176 -12.965725 39.819823 3.084459 -12.111695 8.183203 -0.058442 1.559426 -4.289479 -3.041275 -2.430794 6.301834 2.829718 -3.185542 2.195009 3.923430 -1.788187 -7.949565 -5.246351 -3.752295 -15.895437 2.611613 -3.919015 18.485333 -0.337582 -1.651600 9.565868 -7.314019 2.195405 -1.046907 -77.294901 -7.341098 30.824096 13.550658 -22.868909 -2.989248 -0.660258 -1.193120 -7.889100 27.741422 23.418151 12.701585 -7.125000 0.000000 0.000000 -0.969883 57.354781 -0.293290 11.547557 -1.877734 -2.647184 75.040569 -3.889256 4.952072 -8.825701 19.870325 -1.980478 1.045879 -0.731477 5.499216 -14.149266 23.187923 -6.260103 7.125000 0.000000 0.000000 8.627682 -5.732249 7.813887
0.787196 18.139338 0.024120 1.812149 5.444489 2.409490 -2.687564 5.640746 6.169992 -21.256455 -4.004424 -5.426190 -0.884398 4.378950 19.604752 0.973816 -2.350318 1.750235 0.009708 0.623798 1.714250 1.715103 -3.212151 2.086170 14.387385 7.575733 -35.559091 -3.912774 -12.531871 38.073921 3.199369 -12.541492 8.796347 -0.060136 1.582077 -4.352064 -3.145505 -2.496682 6.227276 2.862611 -3.277426 2.142865 4.008604 -1.836720 -7.941117 -5.313673 -3.728328 -15.863565 2.654706 -3.878425 18.461022 -0.307136 -1.634033 9.553780 -7.311339 2.187922 -1.046248 -77.272294 -7.418256 30.892771 13.699150 -23.083482 -3.051768 -0.659421 -1.203552 -7.881073 27.862300 23.759591 12.929108 -7.125000 0.000000 0.000000 -0.942205 57.761701 -0.294251 11.550029 -1.883880 -2.649367 75.032028 -3.943802 4.957005 -8.778258 19.797614 -1.964619 1.045358 -0.723147 5.427368 -14.084252 23.025026 -6.190004 7.125000 0.000000 0.000000 8.659371 -5.911082 7.813379
0.779004 18.134028 0.121623 1.825985 5.475589 2.515642 -2.731566 5.672706 6.234459 -21.145496 -3.941141 -5.092831 -0.961322 4.208669 19.138314 0.929627 -2.216391 1.892624 0.006383 0.512540 1.408415 1.826187 -3.186544 2.024237 14.132608 7.899772 -35.364572 -3.481083 -12.064293 36.335186 3.332371 -12.969206 9.143563 -0.036074 1.128455 -3.103364 -3.205336 -2.499776 6.137218 2.863223 -3.279935 2.146815 4.023659 -1.847057 -7.885891 -5.349474 -3.783621 -15.884516 2.754196 -3.959408 18.429422 -0.278312 -1.663401 9.547941 -7.307826 2.180146 -1.044982 -77.181588 -7.662199 31.132694 13.776126 -23.195011 -3.085726 -0.671188 -1.192800 -7.919887 28.207559 23.421510 12.943131 -7.125000 0.000000 0.000000 -0.438637 57.462299 -0.138616 11.547876 -1.886359 -2.648854 75.137913 -3.965074 4.752141 -8.769970 19.778405 -1.968483 1.038965 -0.700398 5.551175 -14.040886 22.571397 -6.051983 7.125000 0.000000 0.000000 8.664920 -6.397190 7.736410
0.770558 18.130736 0.219367 1.835790 5.495474 2.619959 -2.775180 5.707611 6.302560 -21.022687 -3.856426 -4.748713 -1.038946 4.034662 18.664226 0.902193 -2.140761 2.043635 0.004374 0.427575 1.174926 1.939820 -3.162941 1.961588 13.868003 8.259317 -35.145746 -3.053386 -11.587800 34.592072 3.471033 -13.405275 9.450162 -0.009421 0.574054 -1.577450 -3.261308 -2.494206 6.043310 2.860779 -3.270187 2.158909 4.030898 -1.852159 -7.822838 -5.383009 -3.849741 -15.910519 2.855815 -4.055700 18.403719 -0.251013 -1.699194 9.544880 -7.304251 2.172199 -1.043409 -77.085293 -7.930916 31.396149 13.839059 -23.285829 -3.114089 -0.685380 -1.176614 -7.959689 28.586334 22.917157 12.891487 -7.125000 0.000000 0.000000 0.151909 56.983977 0.042719 11.545175 -1.888286 -2.648106 75.254342 -3.981459 4.529800 -8.766966 19.766620 -1.974427 1.032338 -0.677419 5.694836 -14.006319 22.111725 -5.916077 7.125000 0.000000 0.000000 8.664776 -6.888855 7.653192
0.766009 18.138185 0.319797 1.893717 5.564200 2.746000 -2.815586 5.747765 6.378922 -20.935331 -3.720267 -4.350578 -1.117042 3.844920 18.166757 0.927819 -2.254016 2.190818 0.002680 0.320592 0.880976 2.059077 -3.144336 1.892742 13.512631 8.611806 -34.893222 -2.637129 -11.077547 32.777731 3.638790 -13.950561 9.861378 -0.009703 -0.143423 0.394228 -3.371287 -2.524935 5.936968 2.894467 -3.313019 2.143647 4.101889 -1.879753 -7.769653 -5.460784 -3.868711 -15.878028 2.854187 -4.063410 18.468518 -0.239038 -1.707215 9.562165 -7.301809 2.162803 -1.039411 -77.075926 -8.125255 31.559431 13.891145 -23.355040 -3.138269 -0.700845 -1.141298 -7.903981 28.867373 21.899089 12.510606 -7.125000 0.000000 0.000000 0.733877 55.895560 0.184723 11.546275 -1.891757 -2.650651 75.239080 -4.013377 4.572075 -8.739851 19.724465 -1.960960 1.036319 -0.684781 5.636168 -14.031894 22.245971 -5.963016 7.125000 0.000000 0.000000 8.653648 -6.742445 7.667935
